<svg width="507" height="520" viewBox="0 0 507 520" fill="none" xmlns="http://www.w3.org/2000/svg">
<path d="M153.003 464.184L187.646 401.057C188.173 400.097 189.181 399.5 190.276 399.5H221.069C223.768 399.5 225.094 402.785 223.152 404.659L157.716 467.786C155.241 470.173 151.349 467.198 153.003 464.184Z" fill="#747677" stroke="white"/>
<path d="M374.497 458.684L339.854 395.557C339.327 394.597 338.319 394 337.224 394H306.431C303.732 394 302.406 397.285 304.348 399.159L369.784 462.286C372.259 464.673 376.151 461.698 374.497 458.684Z" fill="#747677" stroke="white"/>
<mask id="path-3-inside-1_2667_502" fill="white">
<path fill-rule="evenodd" clip-rule="evenodd" d="M95.0748 102C58.7297 102 29.9234 132.669 32.1983 168.943L43.3619 346.943C45.4439 380.141 72.9756 406 106.238 406H398.761C432.024 406 459.556 380.141 461.638 346.943L472.801 168.943C475.076 132.67 446.27 102 409.925 102H95.0748ZM123.373 126C84.5263 126 54.0816 159.384 57.6522 198.066L64.3905 271.066C67.5248 305.022 96.0108 331 130.111 331H375.889C409.989 331 438.475 305.022 441.61 271.066L448.348 198.066C451.918 159.384 421.474 126 382.627 126H123.373Z"/>
</mask>
<path fill-rule="evenodd" clip-rule="evenodd" d="M95.0748 102C58.7297 102 29.9234 132.669 32.1983 168.943L43.3619 346.943C45.4439 380.141 72.9756 406 106.238 406H398.761C432.024 406 459.556 380.141 461.638 346.943L472.801 168.943C475.076 132.67 446.27 102 409.925 102H95.0748ZM123.373 126C84.5263 126 54.0816 159.384 57.6522 198.066L64.3905 271.066C67.5248 305.022 96.0108 331 130.111 331H375.889C409.989 331 438.475 305.022 441.61 271.066L448.348 198.066C451.918 159.384 421.474 126 382.627 126H123.373Z" fill="#434C51"/>
<path d="M32.1983 168.943L31.2003 169.006L32.1983 168.943ZM43.3619 346.943L42.3638 347.006L43.3619 346.943ZM461.638 346.943L460.64 346.881L461.638 346.943ZM472.801 168.943L473.799 169.006L472.801 168.943ZM57.6522 198.066L56.6564 198.158L57.6522 198.066ZM64.3905 271.066L65.3863 270.974L64.3905 271.066ZM441.61 271.066L442.605 271.158L441.61 271.066ZM448.348 198.066L447.352 197.974V197.974L448.348 198.066ZM33.1964 168.881C30.9575 133.183 59.3066 103 95.0748 103V101C58.1528 101 28.8892 132.156 31.2003 169.006L33.1964 168.881ZM44.3599 346.881L33.1964 168.881L31.2003 169.006L42.3638 347.006L44.3599 346.881ZM106.238 405C73.5036 405 46.4089 379.551 44.3599 346.881L42.3638 347.006C44.4789 380.73 72.4476 407 106.238 407V405ZM398.761 405H106.238V407H398.761V405ZM460.64 346.881C458.591 379.551 431.496 405 398.761 405V407C432.552 407 460.521 380.731 462.636 347.006L460.64 346.881ZM471.803 168.881L460.64 346.881L462.636 347.006L473.799 169.006L471.803 168.881ZM409.925 103C445.693 103 474.042 133.183 471.803 168.881L473.799 169.006C476.111 132.156 446.847 101 409.925 101V103ZM95.0748 103H409.925V101H95.0748V103ZM58.6479 197.974C55.1314 159.879 85.1149 127 123.373 127V125C83.9377 125 53.0317 158.89 56.6564 198.158L58.6479 197.974ZM65.3863 270.974L58.6479 197.974L56.6564 198.158L63.3947 271.158L65.3863 270.974ZM130.111 330C96.5275 330 68.4731 304.416 65.3863 270.974L63.3947 271.158C66.5766 305.629 95.4941 332 130.111 332V330ZM375.889 330H130.111V332H375.889V330ZM440.614 270.975C437.527 304.416 409.473 330 375.889 330V332C410.506 332 439.423 305.629 442.605 271.158L440.614 270.975ZM447.352 197.974L440.614 270.975L442.605 271.158L449.344 198.158L447.352 197.974ZM382.627 127C420.885 127 450.869 159.879 447.352 197.974L449.344 198.158C452.968 158.89 422.062 125 382.627 125V127ZM123.373 127H382.627V125H123.373V127Z" fill="white" mask="url(#path-3-inside-1_2667_502)"/>
<path d="M317.5 344.5H324.5V390.5H317.5V344.5Z" fill="#2A343A" stroke="white"/>
<path d="M331.5 344.5H338.5V390.5H331.5V344.5Z" fill="#2A343A" stroke="white"/>
<path d="M345.5 344.5H352.5V390.5H345.5V344.5Z" fill="#2A343A" stroke="white"/>
<path d="M359.5 344.5H367.5V390.5H359.5V344.5Z" fill="#2A343A" stroke="white"/>
<path d="M374.5 344.5H381.5V390.5H374.5V344.5Z" fill="#2A343A" stroke="white"/>
<g clip-path="url(#clip0_2667_502)">
<path d="M257 109L238 40" stroke="white" stroke-width="8" stroke-linecap="round"/>
<path d="M257 109L283 40" stroke="white" stroke-width="8" stroke-linecap="round"/>
<path d="M257 109L238 40" stroke="#2A343A" stroke-width="6" stroke-linecap="round"/>
<path d="M257 109L283 40" stroke="#2A343A" stroke-width="6" stroke-linecap="round"/>
</g>
<defs>
<clipPath id="clip0_2667_502">
<rect width="61" height="81" fill="white" transform="translate(232 22)"/>
</clipPath>
</defs>
</svg>
