<svg width="507" height="520" viewBox="0 0 507 520" fill="none" xmlns="http://www.w3.org/2000/svg">
<path d="M253 113L234 44" stroke="white" stroke-width="8" stroke-linecap="round"/>
<path d="M253 113L279 44" stroke="white" stroke-width="8" stroke-linecap="round"/>
<path d="M253 113L234 44" stroke="#2A343A" stroke-width="6" stroke-linecap="round"/>
<path d="M253 113L279 44" stroke="#2A343A" stroke-width="6" stroke-linecap="round"/>
<path d="M139.003 458.184L173.646 395.057C174.173 394.097 175.181 393.5 176.276 393.5H207.069C209.768 393.5 211.094 396.785 209.152 398.659L143.716 461.786C141.241 464.173 137.349 461.198 139.003 458.184Z" fill="#747677" stroke="white"/>
<path d="M371.497 458.684L336.854 395.557C336.327 394.597 335.319 394 334.224 394H303.431C300.732 394 299.406 397.285 301.348 399.159L366.784 462.286C369.259 464.673 373.151 461.698 371.497 458.684Z" fill="#747677" stroke="white"/>
<mask id="path-7-inside-1_2667_502" fill="white">
<path fill-rule="evenodd" clip-rule="evenodd" d="M52.0014 102C33.5016 102 18.856 117.641 20.0704 136.101L35.8599 376.101C36.9666 392.922 50.9333 406 67.7909 406H438.863C455.721 406 469.687 392.922 470.794 376.101L486.583 136.101C487.798 117.641 473.152 102 454.653 102H52.0014ZM47.7248 122C41.8636 122 37.259 127.018 37.7617 132.858L56.1808 346.858C56.6259 352.029 60.9535 356 66.1439 356H437.51C442.701 356 447.028 352.029 447.474 346.858L465.893 132.858C466.395 127.018 461.791 122 455.93 122H47.7248Z"/>
</mask>
<path fill-rule="evenodd" clip-rule="evenodd" d="M52.0014 102C33.5016 102 18.856 117.641 20.0704 136.101L35.8599 376.101C36.9666 392.922 50.9333 406 67.7909 406H438.863C455.721 406 469.687 392.922 470.794 376.101L486.583 136.101C487.798 117.641 473.152 102 454.653 102H52.0014ZM47.7248 122C41.8636 122 37.259 127.018 37.7617 132.858L56.1808 346.858C56.6259 352.029 60.9535 356 66.1439 356H437.51C442.701 356 447.028 352.029 447.474 346.858L465.893 132.858C466.395 127.018 461.791 122 455.93 122H47.7248Z" fill="#434C51"/>
<path d="M20.0704 136.101L19.0726 136.166L20.0704 136.101ZM35.8599 376.101L34.8621 376.166L35.8599 376.101ZM470.794 376.101L469.796 376.035L470.794 376.101ZM486.583 136.101L485.586 136.035L486.583 136.101ZM37.7617 132.858L38.758 132.772L37.7617 132.858ZM56.1808 346.858L57.1771 346.772L56.1808 346.858ZM447.474 346.858L446.477 346.772L447.474 346.858ZM465.893 132.858L466.889 132.943V132.943L465.893 132.858ZM21.0683 136.035C19.8918 118.152 34.0797 103 52.0014 103V101C32.9235 101 17.8202 117.13 19.0726 136.166L21.0683 136.035ZM36.8578 376.035L21.0683 136.035L19.0726 136.166L34.8621 376.166L36.8578 376.035ZM67.7909 405C51.4601 405 37.9298 392.331 36.8578 376.035L34.8621 376.166C36.0033 393.513 50.4065 407 67.7909 407V405ZM438.863 405H67.7909V407H438.863V405ZM469.796 376.035C468.724 392.331 455.194 405 438.863 405V407C456.247 407 470.651 393.513 471.792 376.166L469.796 376.035ZM485.586 136.035L469.796 376.035L471.792 376.166L487.581 136.166L485.586 136.035ZM454.653 103C472.574 103 486.762 118.152 485.586 136.035L487.581 136.166C488.834 117.13 473.73 101 454.653 101V103ZM52.0014 103H454.653V101H52.0014V103ZM38.758 132.772C38.3056 127.516 42.4497 123 47.7248 123V121C41.2775 121 36.2125 126.52 36.7653 132.943L38.758 132.772ZM57.1771 346.772L38.758 132.772L36.7653 132.943L55.1845 346.943L57.1771 346.772ZM66.1439 355C61.4725 355 57.5777 351.426 57.1771 346.772L55.1845 346.943C55.6741 352.632 60.4344 357 66.1439 357V355ZM437.51 355H66.1439V357H437.51V355ZM446.477 346.772C446.077 351.426 442.182 355 437.51 355V357C443.22 357 447.98 352.632 448.47 346.943L446.477 346.772ZM464.896 132.772L446.477 346.772L448.47 346.943L466.889 132.943L464.896 132.772ZM455.93 123C461.205 123 465.349 127.516 464.896 132.772L466.889 132.943C467.442 126.52 462.377 121 455.93 121V123ZM47.7248 123H455.93V121H47.7248V123Z" fill="white" mask="url(#path-7-inside-1_2667_502)"/>
<path d="M354.327 365.5H361.327V394.5H354.327V365.5Z" fill="#2A343A" stroke="white"/>
<path d="M368.327 365.5H375.327V394.5H368.327V365.5Z" fill="#2A343A" stroke="white"/>
<path d="M382.327 365.5H389.327V394.5H382.327V365.5Z" fill="#2A343A" stroke="white"/>
<path d="M396.327 365.5H404.327V394.5H396.327V365.5Z" fill="#2A343A" stroke="white"/>
<path d="M411.327 365.5H418.327V394.5H411.327V365.5Z" fill="#2A343A" stroke="white"/>
</svg>
