<svg width="507" height="520" viewBox="0 0 507 520" fill="none" xmlns="http://www.w3.org/2000/svg">
<path d="M153.003 464.184L187.646 401.057C188.173 400.097 189.181 399.5 190.276 399.5H221.069C223.768 399.5 225.094 402.785 223.152 404.659L157.716 467.786C155.241 470.173 151.349 467.198 153.003 464.184Z" fill="#E6E5E5" stroke="#170A1C" stroke-width="2"/>
<path d="M374.497 458.684L339.854 395.557C339.327 394.597 338.319 394 337.224 394H306.431C303.732 394 302.406 397.285 304.348 399.159L369.784 462.286C372.259 464.673 376.151 461.698 374.497 458.684Z" fill="#E6E5E5" stroke="#170A1C" stroke-width="2"/>
<mask id="path-3-inside-1_2749_457" fill="white">
<path fill-rule="evenodd" clip-rule="evenodd" d="M95.0748 102C58.7297 102 29.9234 132.669 32.1983 168.943L43.3619 346.943C45.4439 380.141 72.9756 406 106.238 406H398.761C432.024 406 459.556 380.141 461.638 346.943L472.801 168.943C475.076 132.67 446.27 102 409.925 102H95.0748ZM123.373 126C84.5263 126 54.0816 159.384 57.6522 198.066L64.3905 271.066C67.5248 305.022 96.0108 331 130.111 331H375.889C409.989 331 438.475 305.022 441.61 271.066L448.348 198.066C451.918 159.384 421.474 126 382.627 126H123.373Z"/>
</mask>
<path fill-rule="evenodd" clip-rule="evenodd" d="M95.0748 102C58.7297 102 29.9234 132.669 32.1983 168.943L43.3619 346.943C45.4439 380.141 72.9756 406 106.238 406H398.761C432.024 406 459.556 380.141 461.638 346.943L472.801 168.943C475.076 132.67 446.27 102 409.925 102H95.0748ZM123.373 126C84.5263 126 54.0816 159.384 57.6522 198.066L64.3905 271.066C67.5248 305.022 96.0108 331 130.111 331H375.889C409.989 331 438.475 305.022 441.61 271.066L448.348 198.066C451.918 159.384 421.474 126 382.627 126H123.373Z" fill="#E6E5E5"/>
<path d="M32.1983 168.943L30.2023 169.069L32.1983 168.943ZM43.3619 346.943L41.3658 347.069L43.3619 346.943ZM461.638 346.943L459.642 346.818L459.642 346.818L461.638 346.943ZM472.801 168.943L474.798 169.069L474.798 169.069L472.801 168.943ZM57.6522 198.066L55.6606 198.25L57.6522 198.066ZM64.3905 271.066L66.382 270.883L66.382 270.883L64.3905 271.066ZM441.61 271.066L443.601 271.25L443.601 271.25L441.61 271.066ZM448.348 198.066L446.356 197.883L446.356 197.883L448.348 198.066ZM34.1944 168.818C31.9917 133.696 59.8835 104 95.0748 104V100C57.5759 100 27.8551 131.643 30.2023 169.069L34.1944 168.818ZM45.358 346.818L34.1944 168.818L30.2023 169.069L41.3658 347.069L45.358 346.818ZM106.238 404C74.0316 404 47.3739 378.962 45.358 346.818L41.3658 347.069C43.5139 381.32 71.9196 408 106.238 408V404ZM398.761 404H106.238V408H398.761V404ZM459.642 346.818C457.626 378.962 430.968 404 398.761 404V408C433.08 408 461.486 381.32 463.634 347.069L459.642 346.818ZM470.805 168.818L459.642 346.818L463.634 347.069L474.798 169.069L470.805 168.818ZM409.925 104C445.116 104 473.008 133.696 470.805 168.818L474.798 169.069C477.145 131.643 447.424 100 409.925 100V104ZM95.0748 104H409.925V100H95.0748V104ZM59.6437 197.883C56.1813 160.373 85.7035 128 123.373 128V124C83.3491 124 51.9818 158.396 55.6606 198.25L59.6437 197.883ZM66.382 270.883L59.6437 197.883L55.6606 198.25L62.399 271.25L66.382 270.883ZM130.111 329C97.0441 329 69.4214 303.81 66.382 270.883L62.399 271.25C65.6283 306.235 94.9774 333 130.111 333V329ZM375.889 329H130.111V333H375.889V329ZM439.618 270.883C436.579 303.81 408.956 329 375.889 329V333C411.023 333 440.372 306.235 443.601 271.25L439.618 270.883ZM446.356 197.883L439.618 270.883L443.601 271.25L450.339 198.25L446.356 197.883ZM382.627 128C420.297 128 449.819 160.373 446.356 197.883L450.339 198.25C454.018 158.396 422.651 124 382.627 124V128ZM123.373 128H382.627V124H123.373V128Z" fill="#170A1C" mask="url(#path-3-inside-1_2749_457)"/>
<path d="M317.5 344.5H324.5V390.5H317.5V344.5Z" fill="#170A1C" stroke="#170A1C"/>
<path d="M331.5 344.5H338.5V390.5H331.5V344.5Z" fill="#170A1C" stroke="#170A1C"/>
<path d="M345.5 344.5H352.5V390.5H345.5V344.5Z" fill="#170A1C" stroke="#170A1C"/>
<path d="M359.5 344.5H367.5V390.5H359.5V344.5Z" fill="#170A1C" stroke="#170A1C"/>
<path d="M374.5 344.5H381.5V390.5H374.5V344.5Z" fill="#170A1C" stroke="#170A1C"/>
<g clip-path="url(#clip0_2749_457)">
<path d="M257 109L238 40" stroke="#170A1C" stroke-width="8" stroke-linecap="round"/>
<path d="M257 109L283 40" stroke="#170A1C" stroke-width="8" stroke-linecap="round"/>
<path d="M257 109L238 40" stroke="#170A1C" stroke-width="6" stroke-linecap="round"/>
<path d="M257 109L283 40" stroke="#170A1C" stroke-width="6" stroke-linecap="round"/>
</g>
<defs>
<clipPath id="clip0_2749_457">
<rect width="61" height="81" fill="white" transform="translate(232 22)"/>
</clipPath>
</defs>
</svg>
