<svg width="507" height="520" viewBox="0 0 507 520" fill="none" xmlns="http://www.w3.org/2000/svg">
<path d="M253 113L234 44" stroke="white" stroke-width="8" stroke-linecap="round"/>
<path d="M253 113L279 44" stroke="white" stroke-width="8" stroke-linecap="round"/>
<path d="M253 113L234 44" stroke="#2A343A" stroke-width="6" stroke-linecap="round"/>
<path d="M253 113L279 44" stroke="#2A343A" stroke-width="6" stroke-linecap="round"/>
<path d="M135.003 464.184L169.646 401.057C170.173 400.097 171.181 399.5 172.276 399.5H203.069C205.768 399.5 207.094 402.785 205.152 404.659L139.716 467.786C137.241 470.173 133.349 467.198 135.003 464.184Z" fill="#747677" stroke="white"/>
<path d="M371.497 458.684L336.854 395.557C336.327 394.597 335.319 394 334.224 394H303.431C300.732 394 299.406 397.285 301.348 399.159L366.784 462.286C369.259 464.673 373.151 461.698 371.497 458.684Z" fill="#747677" stroke="white"/>
<mask id="path-7-inside-1_2667_502" fill="white">
<path fill-rule="evenodd" clip-rule="evenodd" d="M52.0014 102C33.5016 102 18.856 117.641 20.0704 136.101L35.8599 376.101C36.9666 392.922 50.9333 406 67.7909 406H438.863C455.721 406 469.687 392.922 470.794 376.101L486.583 136.101C487.798 117.641 473.152 102 454.653 102H52.0014ZM48.0688 122C42.1458 122 37.5207 127.119 38.1201 133.012L56.2263 311.012C56.7455 316.117 61.0439 320 66.1749 320H437.825C442.956 320 447.255 316.117 447.774 311.012L465.88 133.012C466.479 127.119 461.854 122 455.931 122H48.0688Z"/>
</mask>
<path fill-rule="evenodd" clip-rule="evenodd" d="M52.0014 102C33.5016 102 18.856 117.641 20.0704 136.101L35.8599 376.101C36.9666 392.922 50.9333 406 67.7909 406H438.863C455.721 406 469.687 392.922 470.794 376.101L486.583 136.101C487.798 117.641 473.152 102 454.653 102H52.0014ZM48.0688 122C42.1458 122 37.5207 127.119 38.1201 133.012L56.2263 311.012C56.7455 316.117 61.0439 320 66.1749 320H437.825C442.956 320 447.255 316.117 447.774 311.012L465.88 133.012C466.479 127.119 461.854 122 455.931 122H48.0688Z" fill="#434C51"/>
<path d="M20.0704 136.101L19.0726 136.166L20.0704 136.101ZM35.8599 376.101L34.8621 376.166L35.8599 376.101ZM470.794 376.101L471.792 376.166L471.792 376.166L470.794 376.101ZM486.583 136.101L485.586 136.035L485.586 136.035L486.583 136.101ZM38.1201 133.012L39.115 132.911L39.115 132.911L38.1201 133.012ZM56.2263 311.012L55.2314 311.113L55.2314 311.113L56.2263 311.012ZM447.774 311.012L448.769 311.113L448.769 311.113L447.774 311.012ZM465.88 133.012L464.885 132.911L464.885 132.911L465.88 133.012ZM21.0683 136.035C19.8918 118.152 34.0797 103 52.0014 103V101C32.9235 101 17.8202 117.13 19.0726 136.166L21.0683 136.035ZM36.8578 376.035L21.0683 136.035L19.0726 136.166L34.8621 376.166L36.8578 376.035ZM67.7909 405C51.4601 405 37.9298 392.331 36.8578 376.035L34.8621 376.166C36.0033 393.513 50.4065 407 67.7909 407V405ZM438.863 405H67.7909V407H438.863V405ZM469.796 376.035C468.724 392.331 455.194 405 438.863 405V407C456.247 407 470.651 393.513 471.792 376.166L469.796 376.035ZM485.586 136.035L469.796 376.035L471.792 376.166L487.581 136.166L485.586 136.035ZM454.653 103C472.574 103 486.762 118.152 485.586 136.035L487.581 136.166C488.834 117.13 473.73 101 454.653 101V103ZM52.0014 103H454.653V101H52.0014V103ZM39.115 132.911C38.5755 127.607 42.7381 123 48.0688 123V121C41.5535 121 36.4659 126.631 37.1253 133.113L39.115 132.911ZM57.2211 310.911L39.115 132.911L37.1253 133.113L55.2314 311.113L57.2211 310.911ZM66.1749 319C61.557 319 57.6884 315.505 57.2211 310.911L55.2314 311.113C55.8026 316.728 60.5308 321 66.1749 321V319ZM437.825 319H66.1749V321H437.825V319ZM446.779 310.911C446.312 315.505 442.443 319 437.825 319V321C443.469 321 448.197 316.728 448.769 311.113L446.779 310.911ZM464.885 132.911L446.779 310.911L448.769 311.113L466.875 133.113L464.885 132.911ZM455.931 123C461.262 123 465.424 127.607 464.885 132.911L466.875 133.113C467.534 126.631 462.447 121 455.931 121V123ZM48.0688 123H455.931V121H48.0688V123Z" fill="white" mask="url(#path-7-inside-1_2667_502)"/>
<path d="M354.5 334.5H361.5V392.5H354.5V334.5Z" fill="#2A343A" stroke="white"/>
<path d="M368.5 334.5H375.5V392.5H368.5V334.5Z" fill="#2A343A" stroke="white"/>
<path d="M382.5 334.5H389.5V392.5H382.5V334.5Z" fill="#2A343A" stroke="white"/>
<path d="M396.5 334.5H404.5V392.5H396.5V334.5Z" fill="#2A343A" stroke="white"/>
<path d="M411.5 334.5H418.5V392.5H411.5V334.5Z" fill="#2A343A" stroke="white"/>
</svg>
